<svg id="visual" viewBox="0 0 900 100" width="900" height="100" xmlns="http://www.w3.org/2000/svg" xmlns:xlink="http://www.w3.org/1999/xlink" version="1.1"><rect x="0" y="0" width="900" height="100" fill="#0a0322"></rect><defs><linearGradient id="grad1_0" x1="88.9%" y1="100%" x2="100%" y2="0%"><stop offset="-130%" stop-color="#0a0322" stop-opacity="1"></stop><stop offset="230%" stop-color="#0a0322" stop-opacity="1"></stop></linearGradient></defs><defs><linearGradient id="grad2_0" x1="0%" y1="100%" x2="11.1%" y2="0%"><stop offset="-130%" stop-color="#0a0322" stop-opacity="1"></stop><stop offset="230%" stop-color="#0a0322" stop-opacity="1"></stop></linearGradient></defs><g transform="translate(900, 100)"><path d="M-90 0C-85.9 -10.2 -81.9 -20.3 -78.5 -32.5C-75.2 -44.7 -72.6 -58.9 -63.6 -63.6C-54.6 -68.4 -39.2 -63.7 -27.6 -66.5C-15.9 -69.3 -7.9 -79.7 0 -90L0 0Z" fill="#FBAE3C"></path></g><g transform="translate(0, 0)"><path d="M90 0C86.6 10.9 83.3 21.7 79.5 32.9C75.7 44.1 71.4 55.5 63.6 63.6C55.8 71.8 44.5 76.5 33.3 80.4C22.1 84.2 11 87.1 0 90L0 0Z" fill="#FBAE3C"></path></g></svg>