<svg id="visual" viewBox="0 0 900 600" width="900" height="600" xmlns="http://www.w3.org/2000/svg" xmlns:xlink="http://www.w3.org/1999/xlink" version="1.1"><rect x="0" y="0" width="900" height="600" fill="#0a0322"></rect><defs><linearGradient id="grad1_0" x1="33.3%" y1="0%" x2="100%" y2="100%"><stop offset="20%" stop-color="#0a0322" stop-opacity="1"></stop><stop offset="80%" stop-color="#0a0322" stop-opacity="1"></stop></linearGradient></defs><defs><linearGradient id="grad2_0" x1="0%" y1="0%" x2="66.7%" y2="100%"><stop offset="20%" stop-color="#0a0322" stop-opacity="1"></stop><stop offset="80%" stop-color="#0a0322" stop-opacity="1"></stop></linearGradient></defs><g transform="translate(900, 0)"><path d="M0 324.5C-18.5 288.7 -37 252.8 -54.3 237.9C-71.5 223 -87.5 229 -115.4 239.7C-143.3 250.3 -183.1 265.7 -202.3 253.7C-221.5 241.7 -220 202.3 -215.8 172.1C-211.5 141.9 -204.5 120.9 -221.6 106.7C-238.8 92.6 -280.1 85.4 -301.3 68.8C-322.4 52.1 -323.5 26.1 -324.5 0L0 0Z" fill="#f1ac38"></path></g><g transform="translate(0, 600)"><path d="M0 -324.5C23.8 -319.2 47.5 -313.9 68.8 -301.3C90 -288.6 108.6 -268.4 118.5 -246C128.3 -223.5 129.2 -198.6 156.5 -196.2C183.7 -193.8 237.3 -213.9 253.7 -202.3C270.2 -190.8 249.5 -147.6 251.4 -121.1C253.2 -94.5 277.5 -84.4 293.5 -67C309.4 -49.6 316.9 -24.8 324.5 0L0 0Z" fill="#f1ac38"></path></g></svg>