<svg id="visual" viewBox="0 0 900 600" width="900" height="600" xmlns="http://www.w3.org/2000/svg" xmlns:xlink="http://www.w3.org/1999/xlink" version="1.1"><rect x="0" y="0" width="900" height="600" fill="#0A0322"></rect><defs><linearGradient id="grad1_0" x1="33.3%" y1="100%" x2="100%" y2="0%"><stop offset="20%" stop-color="#0a0322" stop-opacity="1"></stop><stop offset="80%" stop-color="#0a0322" stop-opacity="1"></stop></linearGradient></defs><defs><linearGradient id="grad2_0" x1="0%" y1="100%" x2="66.7%" y2="0%"><stop offset="20%" stop-color="#0a0322" stop-opacity="1"></stop><stop offset="80%" stop-color="#0a0322" stop-opacity="1"></stop></linearGradient></defs><g transform="translate(900, 600)"><path d="M-297.5 0C-270.6 -16.6 -243.8 -33.1 -240.8 -55C-237.9 -76.8 -258.8 -103.9 -256.8 -123.7C-254.7 -143.4 -229.7 -155.8 -211.1 -168.3C-192.5 -180.8 -180.2 -193.4 -168.3 -211.1C-156.5 -228.7 -145 -251.4 -128 -265.8C-111 -280.1 -88.4 -286.1 -66.2 -290C-43.9 -293.9 -22 -295.7 0 -297.5L0 0Z" fill="#F1AC38"></path></g><g transform="translate(0, 0)"><path d="M297.5 0C296.1 22.3 294.7 44.7 290 66.2C285.3 87.7 277.2 108.4 264.9 127.6C252.6 146.7 236.1 164.4 213.4 170.2C190.8 176.1 162 170.1 146.5 183.7C131.1 197.3 129 230.5 115 238.8C101 247 75 230.3 53.9 235.9C32.7 241.6 16.3 269.5 0 297.5L0 0Z" fill="#F1AC38"></path></g></svg>