<svg id="visual" viewBox="0 0 900 100" width="900" height="100" xmlns="http://www.w3.org/2000/svg" xmlns:xlink="http://www.w3.org/1999/xlink" version="1.1"><rect x="0" y="0" width="900" height="100" fill="#0a0322"></rect><defs><linearGradient id="grad1_0" x1="33.3%" y1="100%" x2="100%" y2="0%"><stop offset="20%" stop-color="#0a0322" stop-opacity="1"></stop><stop offset="80%" stop-color="#0a0322" stop-opacity="1"></stop></linearGradient></defs><defs><linearGradient id="grad2_0" x1="0%" y1="100%" x2="66.7%" y2="0%"><stop offset="20%" stop-color="#0a0322" stop-opacity="1"></stop><stop offset="80%" stop-color="#0a0322" stop-opacity="1"></stop></linearGradient></defs><g transform="translate(900, 600)"><path d="M-378.6 0C-355.8 -40.7 -333.1 -81.3 -319.7 -132.4C-306.3 -183.5 -302.2 -245 -267.7 -267.7C-233.2 -290.4 -168.3 -274.4 -118.6 -286.4C-68.9 -298.4 -34.5 -338.5 0 -378.6L0 0Z" fill="#F1ac38"></path></g><g transform="translate(0, 0)"><path d="M378.6 0C338.7 34 298.8 67.9 287.3 119C275.8 170.1 292.8 238.4 267.7 267.7C242.6 297 175.6 287.3 124 299.3C72.4 311.3 36.2 345 0 378.6L0 0Z" fill="#F1ac38"></path></g></svg>